<svg xmlns="http://www.w3.org/2000/svg" viewBox="0 0 1024 1024" fill="currentColor">
  <path d="M 252,691 L252,692 L248,696 L248,697 L244,701 L244,702 L240,706 L240,707 L236,711 L236,712 L232,716 L232,717 L228,721 L228,722 L225,725 L225,726 L220,731 L220,732 L219,733 L218,733 L217,732 L216,732 L215,731 L213,731 L212,730 L210,730 L209,729 L205,729 L204,728 L192,728 L191,729 L188,729 L187,730 L184,730 L183,731 L182,731 L181,732 L180,732 L179,733 L178,733 L177,734 L176,734 L175,735 L174,735 L172,737 L171,737 L165,743 L164,743 L164,744 L159,749 L159,750 L156,753 L156,754 L155,755 L155,756 L153,758 L153,759 L152,760 L152,762 L151,763 L151,764 L150,765 L150,767 L149,768 L149,771 L148,772 L148,776 L147,777 L147,795 L148,796 L148,800 L149,801 L149,804 L150,805 L150,807 L151,808 L151,809 L152,810 L152,812 L153,813 L153,814 L154,815 L154,816 L155,817 L155,818 L157,820 L157,821 L159,823 L159,824 L161,826 L161,827 L165,831 L165,832 L175,842 L175,843 L181,849 L182,849 L191,858 L192,858 L196,862 L197,862 L200,865 L201,865 L202,866 L203,866 L205,868 L206,868 L207,869 L208,869 L209,870 L210,870 L211,871 L212,871 L213,872 L214,872 L215,873 L217,873 L218,874 L219,874 L220,875 L223,875 L224,876 L228,876 L229,877 L245,877 L246,876 L250,876 L251,875 L254,875 L255,874 L257,874 L258,873 L260,873 L261,872 L262,872 L263,871 L264,871 L265,870 L266,870 L267,869 L268,869 L269,868 L270,868 L273,865 L274,865 L279,860 L280,860 L282,858 L282,857 L287,852 L287,851 L288,850 L288,849 L290,847 L290,846 L291,845 L291,843 L292,842 L292,841 L293,840 L293,837 L294,836 L294,831 L295,830 L295,823 L294,822 L294,817 L293,816 L293,813 L292,812 L292,810 L291,809 L291,807 L290,806 L290,805 L289,804 L289,803 L291,801 L292,801 L295,798 L296,798 L299,795 L300,795 L304,791 L305,791 L309,787 L310,787 L314,783 L315,783 L319,779 L320,779 L324,775 L325,775 L329,771 L330,771 L331,770 L331,768 L330,768 L299,737 L298,737 L295,734 L295,733 L290,728 L289,728 L288,727 L288,726 L287,726 L285,724 L285,723 L253,691 Z"/>
  <path d="M 295,643 L293,645 L293,646 L279,660 L279,661 L271,669 L271,670 L270,671 L269,671 L269,672 L270,672 L276,678 L276,679 L351,754 L360,745 L361,745 L369,737 L370,737 L379,728 L380,728 L380,727 L352,699 L352,698 L351,697 L350,697 L344,691 L344,690 L343,689 L342,689 L340,687 L340,686 L335,681 L334,681 L333,680 L333,679 L327,673 L326,673 L325,672 L325,671 L324,671 L319,666 L319,665 L318,665 L303,650 L303,649 L302,649 L300,647 L300,646 L299,646 L296,643 Z"/>
  <path d="M 861,149 L860,150 L857,150 L856,151 L853,151 L852,152 L850,152 L849,153 L846,153 L845,154 L843,154 L842,155 L840,155 L839,156 L837,156 L836,157 L833,157 L832,158 L830,158 L829,159 L827,159 L826,160 L823,160 L822,161 L820,161 L819,162 L817,162 L816,163 L814,163 L813,164 L810,164 L809,165 L807,165 L806,166 L804,166 L803,167 L800,167 L799,168 L797,168 L796,169 L794,169 L793,170 L791,170 L790,171 L787,171 L786,172 L784,172 L783,173 L781,173 L780,174 L777,174 L776,175 L774,175 L773,176 L771,176 L770,177 L767,177 L766,178 L764,178 L763,179 L761,179 L760,180 L758,180 L757,181 L755,181 L754,182 L751,182 L750,183 L748,183 L747,184 L745,184 L744,185 L741,185 L740,186 L738,186 L737,187 L735,187 L734,188 L732,188 L731,189 L728,189 L727,190 L725,190 L724,191 L722,191 L721,192 L719,192 L718,193 L715,193 L714,194 L712,194 L711,195 L709,195 L708,196 L705,196 L704,197 L702,197 L701,198 L699,198 L698,199 L696,199 L695,200 L694,200 L693,201 L691,201 L689,203 L688,203 L687,204 L686,204 L683,207 L682,207 L654,235 L654,236 L631,259 L631,260 L630,261 L629,261 L629,262 L608,283 L608,284 L585,307 L585,308 L560,333 L560,334 L541,353 L541,354 L540,355 L539,355 L539,356 L514,381 L514,382 L495,401 L495,402 L466,431 L466,432 L447,451 L447,452 L424,475 L424,476 L405,495 L405,496 L376,525 L376,526 L358,544 L357,544 L314,501 L314,500 L313,499 L313,475 L312,474 L312,472 L311,471 L311,470 L309,468 L309,467 L304,462 L303,462 L301,460 L300,460 L299,459 L297,459 L296,458 L292,458 L291,457 L290,458 L284,458 L283,459 L282,459 L281,460 L280,460 L247,493 L247,494 L239,502 L239,503 L238,504 L238,505 L237,506 L237,508 L236,509 L236,515 L237,516 L237,519 L238,520 L238,521 L239,522 L239,523 L252,536 L252,537 L327,612 L326,613 L325,613 L318,620 L317,620 L313,624 L313,625 L321,633 L322,633 L323,634 L323,635 L324,635 L325,636 L325,637 L340,652 L341,652 L384,695 L384,696 L398,710 L399,710 L403,706 L404,706 L413,697 L414,697 L435,718 L435,719 L436,719 L451,734 L451,735 L452,736 L453,736 L476,759 L476,760 L477,760 L483,766 L483,767 L484,768 L485,768 L486,769 L486,770 L487,770 L500,783 L501,783 L502,784 L503,784 L504,785 L505,785 L506,786 L511,786 L512,787 L513,787 L514,786 L518,786 L519,785 L521,785 L522,784 L523,784 L545,762 L545,761 L564,742 L564,741 L565,740 L565,738 L566,737 L566,726 L565,725 L565,723 L564,722 L564,721 L563,720 L563,719 L556,712 L555,712 L554,711 L552,711 L551,710 L550,710 L549,709 L524,709 L484,669 L484,668 L488,664 L489,664 L519,634 L520,634 L546,608 L547,608 L581,574 L582,574 L613,543 L614,543 L645,512 L646,512 L671,487 L672,487 L704,455 L705,455 L734,426 L735,426 L736,425 L736,424 L737,423 L738,423 L772,389 L773,389 L801,361 L802,361 L803,360 L803,359 L804,358 L805,358 L823,340 L823,339 L826,336 L826,335 L827,334 L827,333 L828,332 L828,331 L829,330 L829,329 L830,328 L830,326 L831,325 L831,323 L832,322 L832,320 L833,319 L833,317 L834,316 L834,314 L835,313 L835,310 L836,309 L836,307 L837,306 L837,304 L838,303 L838,300 L839,299 L839,297 L840,296 L840,294 L841,293 L841,291 L842,290 L842,288 L843,287 L843,284 L844,283 L844,281 L845,280 L845,278 L846,277 L846,274 L847,273 L847,271 L848,270 L848,268 L849,267 L849,265 L850,264 L850,261 L851,260 L851,258 L852,257 L852,255 L853,254 L853,251 L854,250 L854,248 L855,247 L855,245 L856,244 L856,241 L857,240 L857,238 L858,237 L858,235 L859,234 L859,231 L860,230 L860,228 L861,227 L861,225 L862,224 L862,221 L863,220 L863,218 L864,217 L864,215 L865,214 L865,212 L866,211 L866,208 L867,207 L867,205 L868,204 L868,201 L869,200 L869,198 L870,197 L870,195 L871,194 L871,192 L872,191 L872,188 L873,187 L873,185 L874,184 L874,182 L875,181 L875,178 L876,177 L876,175 L877,174 L877,172 L878,171 L878,167 L879,166 L879,159 L878,158 L878,157 L877,156 L877,155 L873,151 L872,151 L871,150 L869,150 L868,149 Z"/>
</svg>