<svg xmlns="http://www.w3.org/2000/svg" viewBox="0 0 512 512" fill="currentColor">
  <path d="M 136,337 L135,338 L135,339 L131,343 L131,344 L127,348 L127,349 L123,353 L123,354 L120,357 L119,356 L118,356 L117,355 L113,355 L112,354 L109,354 L108,355 L105,355 L104,356 L103,356 L102,357 L101,357 L100,358 L99,358 L92,365 L92,366 L90,368 L90,369 L89,370 L89,372 L88,373 L88,377 L87,378 L87,385 L88,386 L88,390 L89,391 L89,392 L90,393 L90,394 L91,395 L91,396 L92,397 L92,398 L94,400 L94,401 L109,416 L110,416 L112,418 L113,418 L115,420 L116,420 L117,421 L119,421 L120,422 L122,422 L123,423 L134,423 L135,422 L138,422 L139,421 L140,421 L141,420 L142,420 L143,419 L144,419 L146,417 L147,417 L151,413 L151,412 L153,410 L153,409 L154,408 L154,406 L155,405 L155,394 L154,393 L154,391 L153,390 L153,389 L155,387 L156,387 L159,384 L160,384 L164,380 L165,380 L169,376 L170,376 L172,374 L172,373 L158,359 L157,359 L150,352 L150,351 Z"/>
  <path d="M 156,315 L147,324 L147,325 L144,328 L144,329 L151,336 L151,337 L168,354 L169,354 L177,362 L177,363 L180,366 L182,366 L188,360 L189,360 L195,354 Z"/>
  <path d="M 415,88 L414,89 L412,89 L411,90 L408,90 L407,91 L405,91 L404,92 L402,92 L401,93 L399,93 L398,94 L395,94 L394,95 L392,95 L391,96 L389,96 L388,97 L385,97 L384,98 L382,98 L381,99 L379,99 L378,100 L375,100 L374,101 L372,101 L371,102 L369,102 L368,103 L366,103 L365,104 L363,104 L362,105 L359,105 L358,106 L356,106 L355,107 L353,107 L352,108 L349,108 L348,109 L346,109 L345,110 L343,110 L342,111 L340,111 L339,112 L338,112 L337,113 L336,113 L335,114 L334,114 L316,132 L316,133 L293,156 L293,157 L272,178 L272,179 L250,201 L250,202 L227,225 L227,226 L204,249 L204,250 L184,270 L164,250 L164,238 L163,237 L163,236 L162,235 L162,234 L160,232 L159,232 L158,231 L157,231 L156,230 L151,230 L150,231 L149,231 L148,232 L147,232 L142,237 L142,238 L129,251 L129,253 L128,254 L128,257 L129,258 L129,260 L170,301 L166,305 L165,305 L164,306 L164,308 L165,308 L201,344 L201,345 L202,345 L203,346 L204,346 L209,341 L210,341 L248,379 L249,379 L251,381 L253,381 L254,382 L257,382 L258,381 L259,381 L260,380 L261,380 L278,363 L278,362 L280,360 L280,353 L279,352 L279,351 L278,350 L278,349 L277,348 L276,348 L275,347 L274,347 L273,346 L261,346 L243,328 L243,327 L266,304 L267,304 L298,273 L299,273 L328,244 L329,244 L361,212 L362,212 L400,174 L400,173 L401,172 L401,171 L402,170 L402,168 L403,167 L403,165 L404,164 L404,162 L405,161 L405,158 L406,157 L406,155 L407,154 L407,152 L408,151 L408,149 L409,148 L409,145 L410,144 L410,142 L411,141 L411,139 L412,138 L412,135 L413,134 L413,132 L414,131 L414,129 L415,128 L415,125 L416,124 L416,122 L417,121 L417,119 L418,118 L418,116 L419,115 L419,112 L420,111 L420,109 L421,108 L421,105 L422,104 L422,102 L423,101 L423,99 L424,98 L424,92 L423,91 L423,90 L422,90 L421,89 L420,89 L419,88 Z"/>
</svg>