<svg xmlns="http://www.w3.org/2000/svg" viewBox="0 0 512 512" fill="currentColor">
  <path d="M 158,323 L156,325 L156,326 L152,330 L152,331 L148,335 L148,336 L146,338 L144,338 L143,337 L133,337 L132,338 L131,338 L130,339 L129,339 L122,346 L122,347 L121,348 L121,349 L120,350 L120,351 L119,352 L119,364 L120,365 L120,367 L121,368 L121,369 L122,370 L122,371 L123,372 L123,373 L130,380 L130,381 L131,381 L138,388 L139,388 L140,389 L141,389 L142,390 L143,390 L144,391 L145,391 L146,392 L149,392 L150,393 L155,393 L156,392 L159,392 L160,391 L162,391 L163,390 L164,390 L166,388 L167,388 L171,384 L171,383 L173,381 L173,379 L174,378 L174,369 L173,368 L173,366 L172,365 L173,364 L174,364 L178,360 L179,360 L183,356 L184,356 L187,353 L188,353 L188,352 L159,323 Z"/>
  <path d="M 174,305 L169,310 L169,311 L165,315 L165,316 L195,346 L196,346 L202,340 L203,340 L206,337 L206,336 L175,305 Z"/>
  <path d="M 387,119 L386,120 L384,120 L383,121 L380,121 L379,122 L377,122 L376,123 L374,123 L373,124 L370,124 L369,125 L367,125 L366,126 L364,126 L363,127 L361,127 L360,128 L357,128 L356,129 L354,129 L353,130 L351,130 L350,131 L347,131 L346,132 L344,132 L343,133 L341,133 L340,134 L337,134 L336,135 L334,135 L333,136 L331,136 L330,137 L328,137 L327,138 L325,138 L324,139 L323,139 L322,140 L321,140 L292,169 L292,170 L269,193 L269,194 L245,218 L245,219 L223,241 L223,242 L198,267 L197,267 L181,251 L181,241 L180,240 L180,239 L177,236 L176,236 L175,235 L171,235 L170,236 L169,236 L153,252 L153,253 L152,254 L152,258 L153,259 L153,260 L186,293 L182,297 L181,297 L181,298 L213,330 L214,330 L219,325 L252,358 L253,358 L254,359 L257,359 L258,358 L260,358 L268,350 L268,349 L276,341 L276,335 L275,334 L275,333 L273,331 L272,331 L271,330 L270,330 L269,329 L260,329 L246,315 L246,314 L270,290 L271,290 L300,261 L301,261 L332,230 L333,230 L366,197 L367,197 L372,192 L372,191 L374,189 L374,188 L375,187 L375,186 L376,185 L376,182 L377,181 L377,179 L378,178 L378,176 L379,175 L379,173 L380,172 L380,169 L381,168 L381,166 L382,165 L382,163 L383,162 L383,159 L384,158 L384,156 L385,155 L385,153 L386,152 L386,149 L387,148 L387,146 L388,145 L388,143 L389,142 L389,139 L390,138 L390,136 L391,135 L391,133 L392,132 L392,130 L393,129 L393,122 L391,120 L390,120 L389,119 Z"/>
</svg>